<?xml version="1.0" standalone="no"?><svg xmlns="http://www.w3.org/2000/svg" viewBox="0 0 1440 320"><path fill="#EEEDDE" fill-opacity="1" d="M0,192L16,170.7C32,149,64,107,96,80C128,53,160,43,192,69.3C224,96,256,160,288,165.3C320,171,352,117,384,101.3C416,85,448,107,480,96C512,85,544,43,576,48C608,53,640,107,672,154.7C704,203,736,245,768,272C800,299,832,309,864,266.7C896,224,928,128,960,85.3C992,43,1024,53,1056,101.3C1088,149,1120,235,1152,240C1184,245,1216,171,1248,128C1280,85,1312,75,1344,96C1376,117,1408,171,1424,197.3L1440,224L1440,320L1424,320C1408,320,1376,320,1344,320C1312,320,1280,320,1248,320C1216,320,1184,320,1152,320C1120,320,1088,320,1056,320C1024,320,992,320,960,320C928,320,896,320,864,320C832,320,800,320,768,320C736,320,704,320,672,320C640,320,608,320,576,320C544,320,512,320,480,320C448,320,416,320,384,320C352,320,320,320,288,320C256,320,224,320,192,320C160,320,128,320,96,320C64,320,32,320,16,320L0,320Z"></path></svg>