<?xml version="1.0" standalone="no"?><svg xmlns="http://www.w3.org/2000/svg" viewBox="0 0 1440 320"><path fill="#EEEDDE" fill-opacity="1" d="M0,128L16,112C32,96,64,64,96,69.3C128,75,160,117,192,160C224,203,256,245,288,229.3C320,213,352,139,384,106.7C416,75,448,85,480,101.3C512,117,544,139,576,138.7C608,139,640,117,672,122.7C704,128,736,160,768,181.3C800,203,832,213,864,229.3C896,245,928,267,960,250.7C992,235,1024,181,1056,181.3C1088,181,1120,235,1152,224C1184,213,1216,139,1248,101.3C1280,64,1312,64,1344,90.7C1376,117,1408,171,1424,197.3L1440,224L1440,0L1424,0C1408,0,1376,0,1344,0C1312,0,1280,0,1248,0C1216,0,1184,0,1152,0C1120,0,1088,0,1056,0C1024,0,992,0,960,0C928,0,896,0,864,0C832,0,800,0,768,0C736,0,704,0,672,0C640,0,608,0,576,0C544,0,512,0,480,0C448,0,416,0,384,0C352,0,320,0,288,0C256,0,224,0,192,0C160,0,128,0,96,0C64,0,32,0,16,0L0,0Z"></path></svg>